<svg xmlns="http://www.w3.org/2000/svg" viewBox="0 0 26 24"><g><g opacity="0.75"><path fill="#F2EFDF" d="M19.4,15.6c0,0,2.3-1.8,2.9,0.3c0,0,0.8,2.6-0.7,3c0,0-1.2,0-1.9-1.4"/><path fill="#F2EFDF" d="M3.5,14.7c0,0-2.4,0.2-1.2-2.4c0.3-0.6,1.4-1.8,2.7-0.6"/><path fill="#F2EFDF" d="M17.6,9c0,0-0.5-4.7,2.2-4.2c1.8,0.3,4.6,1.4,6.2,3.9c0.2,0.3,0.2,1.2-4.1,2.4"/><path fill="#F2EFDF" d="M14.4,8.8C4,8.8,3.5,14.5,3.5,15.2c0,0,0.2,6,9.5,6c0,0,5.3,0.2,7.2-2.9l1.8-2.8c0.3-0.7,0.5-2.2,0.5-2.2C22.6,8.5,14.4,8.8,14.4,8.8z M4.1,15.2c0-0.8,0.9-1.4,1.7-1.4c0.8,0,1.7,0.6,1.7,1.4c0,0.8-0.9,1.4-1.7,1.4C5,16.6,4.1,16,4.1,15.2z M11.4,19.8c-1,0-3,0-3.7-1.5c-0.2-0.4,1.9,1,4.1,0.6c0.3-0.1,0.9-0.4,1.2-0.6C13.2,18.1,13.4,19.8,11.4,19.8z M15,17.2c-0.9,0-1.7-0.7-1.7-1.5c0-0.8,0.8-1.5,1.7-1.5c0.9,0,1.7,0.7,1.7,1.5C16.7,16.5,16,17.2,15,17.2z"/></g><g><g><path fill="#F8C76F" d="M18.4,14.6c0,0,2.3-1.8,2.9,0.3c0,0,0.8,2.6-0.7,3c0,0-1.2,0-1.9-1.4"/><path fill="#F8C76F" d="M2.5,13.7c0,0-2.4,0.2-1.2-2.4c0.3-0.6,1.4-1.8,2.7-0.6"/><path fill="#F8C76F" d="M16.6,8c0,0-0.5-4.7,2.2-4.2c1.8,0.3,4.6,1.4,6.2,3.9c0.2,0.3,0.2,1.2-4.1,2.4"/><path fill="#F8C76F" d="M13.4,7.8C3,7.8,2.5,13.5,2.5,14.2c0,0,0.2,6,9.5,6c0,0,5.3,0.2,7.2-2.9l1.8-2.8c0.3-0.7,0.5-2.2,0.5-2.2C21.6,7.5,13.4,7.8,13.4,7.8z M3.1,14.2c0-0.8,0.9-1.4,1.7-1.4c0.8,0,1.7,0.6,1.7,1.4c0,0.8-0.9,1.4-1.7,1.4C4,15.6,3.1,15,3.1,14.2z M10.4,18.8c-1,0-3,0-3.7-1.5c-0.2-0.4,1.9,1,4.1,0.6c0.3-0.1,0.9-0.4,1.2-0.6C12.2,17.1,12.4,18.8,10.4,18.8z M14,16.2c-0.9,0-1.7-0.7-1.7-1.5c0-0.8,0.8-1.5,1.7-1.5c0.9,0,1.7,0.7,1.7,1.5C15.7,15.5,15,16.2,14,16.2z"/></g></g></g></svg>