<svg xmlns="http://www.w3.org/2000/svg" viewBox="0 0 26 24"><g><g opacity="0.75"><path fill="#F2EFDF" d="M14.5,1C8.3,1,5.1,5.5,5.1,9.3c0,2.3,0.9,4.3,2.7,5c0.3,0.1,0.6,0,0.7-0.3c0.1-0.2,0.2-0.8,0.3-1.1c0.1-0.3,0.1-0.4-0.2-0.7C8,11.5,7.7,10.7,7.7,9.6c0-3.3,2.5-6.3,6.5-6.3c3.5,0,5.5,2.2,5.5,5.1c0,3.8-1.7,7-4.2,7c-1.4,0-2.4-1.1-2.1-2.5c0.4-1.7,1.2-3.5,1.2-4.7c0-1.1-0.6-2-1.8-2c-1.4,0-2.5,1.5-2.5,3.4c0,1.2,0.4,2.1,0.4,2.1S9.2,17.8,9,18.8c-0.5,2.1-0.1,4.8,0,5c0,0.2,0.2,0.2,0.3,0.1c0.1-0.2,1.8-2.2,2.4-4.3c0.2-0.6,0.9-3.6,0.9-3.6c0.5,0.9,1.8,1.6,3.2,1.6c4.2,0,7.1-3.9,7.1-9.1C22.9,4.6,19.6,1,14.5,1z"/></g><g><path fill="#C14952" d="M13.5,0C7.3,0,4.1,4.5,4.1,8.3c0,2.3,0.9,4.3,2.7,5c0.3,0.1,0.6,0,0.7-0.3c0.1-0.2,0.2-0.8,0.3-1.1c0.1-0.3,0.1-0.4-0.2-0.7C7,10.5,6.7,9.7,6.7,8.6c0-3.3,2.5-6.3,6.5-6.3c3.5,0,5.5,2.2,5.5,5.1c0,3.8-1.7,7-4.2,7c-1.4,0-2.4-1.1-2.1-2.5c0.4-1.7,1.2-3.5,1.2-4.7c0-1.1-0.6-2-1.8-2c-1.4,0-2.5,1.5-2.5,3.4c0,1.2,0.4,2.1,0.4,2.1S8.2,16.8,8,17.8c-0.5,2.1-0.1,4.8,0,5c0,0.2,0.2,0.2,0.3,0.1c0.1-0.2,1.8-2.2,2.4-4.3c0.2-0.6,0.9-3.6,0.9-3.6c0.5,0.9,1.8,1.6,3.2,1.6c4.2,0,7.1-3.9,7.1-9.1C21.9,3.6,18.6,0,13.5,0z"/></g></g></svg>