<svg xmlns="http://www.w3.org/2000/svg" viewBox="0 0 26 24"><g><g opacity="0.75"><path fill="#F2EFDF" d="M2,16.8c0,0,4.2,3.9,8.8-0.4c0,0-1.3,0.1-1.7-0.9c0,0-0.1-0.6,0.9-1.2c0,0-2,0.2-2.8-1.5c0,0,0.4-0.7,1.6-0.7c0,0-2.3-0.4-2.6-2.5c0,0,0.5-0.1,1.3-0.2c0,0-2-1.1-1.9-3.1c0,0,5.7,1.9,8,4.4c0,0,1.9-5.2,3.7-6c0,0,0.1,0.1-0.2,0.6c0,0,1-0.7,1.8-0.8c0,0,0.3,0.1-0.7,0.8c0,0,1.6-0.8,1.8-0.2c0,0,0.3,0.5-2,1c0,0,4.1-0.1,5.2,4.8c0,0,1.6,0.5,2.8-0.1c0,0-0.2,1.2-2.5,1.4c0,0,1.2,0.5,2.7,0.3c0,0-1,1.3-2.9,1.1c0,0-1,4.2-4.9,6.4c-1.4,0.8-3.8,1.8-6,1.8c-1.5,0-2.5-0.1-4.5-0.6c-1.1-0.3-2.8-1.3-3.9-2.3C3,18,2.4,17.5,2,16.8z"/></g><g><path fill="#5DB5DE" d="M1,15.8c0,0,4.2,3.9,8.8-0.4c0,0-1.3,0.1-1.7-0.9c0,0-0.1-0.6,0.9-1.2c0,0-2,0.2-2.8-1.5c0,0,0.4-0.7,1.6-0.7c0,0-2.3-0.4-2.6-2.5c0,0,0.5-0.1,1.3-0.2c0,0-2-1.1-1.9-3.1c0,0,5.7,1.9,8,4.4c0,0,1.9-5.2,3.7-6c0,0,0.1,0.1-0.2,0.6c0,0,1-0.7,1.8-0.8c0,0,0.3,0.1-0.7,0.8c0,0,1.6-0.8,1.8-0.2c0,0,0.3,0.5-2,1c0,0,4.1-0.1,5.2,4.8c0,0,1.6,0.5,2.8-0.1c0,0-0.2,1.2-2.5,1.4c0,0,1.2,0.5,2.7,0.3c0,0-1,1.3-2.9,1.1c0,0-1,4.2-4.9,6.4c-1.4,0.8-3.8,1.8-6,1.8c-1.5,0-2.5-0.1-4.5-0.6c-1.1-0.3-2.8-1.3-3.9-2.3C2,17,1.4,16.5,1,15.8z"/></g></g></svg>