<svg xmlns="http://www.w3.org/2000/svg" viewBox="0 0 26 24"><g><g opacity="0.75"><path fill="#F2EFDF" d="M14,1C7.7,1,2.5,6.2,2.5,12.5C2.5,18.8,7.7,24,14,24c6.3,0,11.5-5.2,11.5-11.5C25.5,6.2,20.3,1,14,1z M21.6,6.3c1.4,1.7,2.2,3.8,2.2,6.1c-0.3-0.1-3.6-0.7-6.8-0.3c-0.1-0.2-0.1-0.3-0.2-0.5c-0.2-0.5-0.4-1-0.7-1.4C19.8,8.7,21.4,6.6,21.6,6.3z M14,2.7c2.5,0,4.8,0.9,6.5,2.5c-0.2,0.3-1.7,2.2-5.1,3.5c-1.6-3-3.4-5.4-3.7-5.8C12.4,2.8,13.2,2.7,14,2.7z M9.8,3.6c0.3,0.4,2,2.8,3.6,5.7c-4.6,1.2-8.6,1.2-9.1,1.2C5,7.5,7.1,4.9,9.8,3.6z M4.2,12.5c0-0.1,0-0.2,0-0.3c0.4,0,5.2,0.1,10.1-1.4c0.3,0.6,0.6,1.1,0.8,1.7c-0.1,0-0.3,0.1-0.4,0.1c-5.1,1.6-7.8,6.1-8,6.5C5.1,17.3,4.2,15,4.2,12.5z M14,22.3c-2.3,0-4.4-0.8-6-2.1c0.2-0.4,2.2-4.2,7.7-6.1c0,0,0,0,0.1,0c1.4,3.6,1.9,6.6,2.1,7.4C16.7,22.1,15.4,22.3,14,22.3z M19.5,20.7c-0.1-0.6-0.6-3.5-1.9-7c3.1-0.5,5.8,0.3,6.1,0.4C23.3,16.8,21.7,19.2,19.5,20.7z"/></g><g><g><g id="ball_10_"><g><path fill="#CE5B90" d="M13,0C6.7,0,1.5,5.2,1.5,11.5C1.5,17.8,6.7,23,13,23c6.3,0,11.5-5.2,11.5-11.5C24.5,5.2,19.3,0,13,0z M20.6,5.3c1.4,1.7,2.2,3.8,2.2,6.1c-0.3-0.1-3.6-0.7-6.8-0.3c-0.1-0.2-0.1-0.3-0.2-0.5c-0.2-0.5-0.4-1-0.7-1.4C18.8,7.7,20.4,5.6,20.6,5.3z M13,1.7c2.5,0,4.8,0.9,6.5,2.5c-0.2,0.3-1.7,2.2-5.1,3.5c-1.6-3-3.4-5.4-3.7-5.8C11.4,1.8,12.2,1.7,13,1.7z M8.8,2.6c0.3,0.4,2,2.8,3.6,5.7C7.9,9.5,3.8,9.5,3.4,9.5C4,6.5,6.1,3.9,8.8,2.6z M3.2,11.5c0-0.1,0-0.2,0-0.3c0.4,0,5.2,0.1,10.1-1.4c0.3,0.6,0.6,1.1,0.8,1.7c-0.1,0-0.3,0.1-0.4,0.1c-5.1,1.6-7.8,6.1-8,6.5C4.1,16.3,3.2,14,3.2,11.5z M13,21.3c-2.3,0-4.4-0.8-6-2.1c0.2-0.4,2.2-4.2,7.7-6.1c0,0,0,0,0.1,0c1.4,3.6,1.9,6.6,2.1,7.4C15.7,21.1,14.4,21.3,13,21.3z M18.5,19.7c-0.1-0.6-0.6-3.5-1.9-7c3.1-0.5,5.8,0.3,6.1,0.4C22.3,15.8,20.7,18.2,18.5,19.7z"/></g></g></g></g></g></svg>