<svg xmlns="http://www.w3.org/2000/svg" viewBox="0 0 26 24"><g><g opacity="0.75"><path fill="#F2EFDF" d="M14,14.5c-0.2,0-0.3,0-0.5,0c-0.1-0.3-0.2-0.7-0.2-1c0-0.4,0.1-1,0.2-1c0.1,0,0.1,0,0.2,0c2.8,0,5.1-2.3,5.1-5.1c0-0.7-0.3-1.5-0.7-1.9l1.8-1V1l-3.7,2c-0.8-0.5-1.6-0.9-2.7-0.9c-2.8,0-5,2.3-5,5.1c0,1.6,0.8,3,1.9,3.9c-0.3,0.7-0.5,1.4-0.5,2.2c0,0.7,0.2,1.4,0.4,2c-1.5,0.9-2.4,2.3-2.4,3.8c0,2.6,2.7,4.8,6.1,4.8c3.4,0,6.1-2.1,6.1-4.8C20.1,16.6,17.4,14.5,14,14.5z M13.7,4.9C15,4.9,16,6,16,7.3c0,1.3-1.1,2.4-2.4,2.4c-1.3,0-2.4-1.1-2.4-2.4C11.3,6,12.3,4.9,13.7,4.9z M14,21.1c-1.5,0-2.7-0.8-2.7-1.8c0-1,1.2-1.8,2.7-1.8c1.5,0,2.7,0.8,2.7,1.8C16.7,20.2,15.5,21.1,14,21.1z"/></g><g><g><g><path fill="#7C5C5C" d="M13,13.5c-0.2,0-0.3,0-0.5,0c-0.1-0.3-0.2-0.7-0.2-1c0-0.4,0.1-1,0.2-1c0.1,0,0.1,0,0.2,0c2.8,0,5.1-2.3,5.1-5.1c0-0.7-0.3-1.5-0.7-1.9l1.8-1V0l-3.7,2c-0.8-0.5-1.6-0.9-2.7-0.9c-2.8,0-5,2.3-5,5.1c0,1.6,0.8,3,1.9,3.9c-0.3,0.7-0.5,1.4-0.5,2.2c0,0.7,0.2,1.4,0.4,2c-1.5,0.9-2.4,2.3-2.4,3.8c0,2.6,2.7,4.8,6.1,4.8c3.4,0,6.1-2.1,6.1-4.8C19.1,15.6,16.4,13.5,13,13.5z M12.7,3.9C14,3.9,15,5,15,6.3c0,1.3-1.1,2.4-2.4,2.4c-1.3,0-2.4-1.1-2.4-2.4C10.3,5,11.3,3.9,12.7,3.9z M13,20.1c-1.5,0-2.7-0.8-2.7-1.8c0-1,1.2-1.8,2.7-1.8c1.5,0,2.7,0.8,2.7,1.8C15.7,19.2,14.5,20.1,13,20.1z"/></g></g></g></g></svg>