<svg xmlns="http://www.w3.org/2000/svg" viewBox="0 0 26 24"><g id="path3613_4_"><g opacity="0.75"><path fill="#F2EFDF" d="M23.1,12.2c0-0.1,0-0.3,0-0.4c0-4-3.2-7.3-7.1-7.3c-2.8,0-5.3,1.7-6.4,4.2C9,8.2,8.3,7.9,7.5,7.9c-1.8,0-3.3,1.5-3.3,3.4c0,0.3,0.1,0.7,0.1,1C3,13.2,2,14.7,2,16.6c0,2.7,2.1,4.9,4.8,4.9l0.1,0l0,0l0,0H21c0.1,0,0.2,0,0.3,0c2.6,0,4.7-2.2,4.7-4.8C26,14.7,24.8,12.9,23.1,12.2z M8.4,17.8c-0.5-0.4-0.8-1-0.9-1.6c0-0.2-0.1-0.4-0.1-0.7c0-0.9,0.3-1.7,1-2.3c0.6-0.6,1.5-0.9,2.5-0.9c1,0,2,0.4,2.8,1.2c0.2,0.2,0.4,0.4,0.6,0.7l1.1,1.3c0.2,0.3,0.4,0.5,0.6,0.7c0.6,0.5,1.2,0.8,1.7,0.8c0.4,0,0.8-0.1,1.1-0.4c0.3-0.3,0.4-0.6,0.4-0.9l0-0.2c0-0.2,0-0.3-0.1-0.4c-0.1-0.2-0.2-0.4-0.4-0.6c-0.3-0.3-0.7-0.4-1.1-0.4c-0.5,0-1.1,0.2-1.7,0.8l-1-1.2L15,13.5c0.8-0.9,1.7-1.2,2.8-1.2c1,0,1.8,0.3,2.4,0.9l0,0c0.6,0.6,1,1.4,1,2.3c0,0.2,0,0.5-0.1,0.7c-0.1,0.6-0.4,1.2-0.9,1.6c-0.5,0.4-1,0.7-1.7,0.8c-0.2,0-0.5,0.1-0.7,0.1c-1,0-2-0.4-2.8-1.2c-0.2-0.2-0.4-0.4-0.6-0.7l-1.1-1.3c-0.2-0.3-0.4-0.5-0.6-0.7c-0.6-0.5-1.2-0.8-1.7-0.8c-0.2,0-0.3,0-0.5,0.1c-0.2,0.1-0.4,0.2-0.6,0.4c-0.2,0.2-0.4,0.5-0.4,0.8c0,0.1,0,0.2,0,0.3c0,0.4,0.1,0.7,0.4,1l0,0c0.3,0.3,0.7,0.4,1.1,0.4c0.5,0,1.1-0.2,1.7-0.8l1,1.2l0.1,0.1c-0.9,0.9-1.7,1.2-2.8,1.2C9.9,18.7,9.1,18.4,8.4,17.8z"/></g><g><g><path fill="#4679A4" d="M22.1,11.2c0-0.1,0-0.3,0-0.4c0-4-3.2-7.3-7.1-7.3c-2.8,0-5.3,1.7-6.4,4.2C8,7.2,7.3,6.9,6.5,6.9c-1.8,0-3.3,1.5-3.3,3.4c0,0.3,0.1,0.7,0.1,1C2,12.2,1,13.7,1,15.6c0,2.7,2.1,4.9,4.8,4.9l0.1,0l0,0l0,0H20c0.1,0,0.2,0,0.3,0c2.6,0,4.7-2.2,4.7-4.8C25,13.7,23.8,11.9,22.1,11.2z M7.4,16.8c-0.5-0.4-0.8-1-0.9-1.6c0-0.2-0.1-0.4-0.1-0.7c0-0.9,0.3-1.7,1-2.3c0.6-0.6,1.5-0.9,2.5-0.9c1,0,2,0.4,2.8,1.2c0.2,0.2,0.4,0.4,0.6,0.7l1.1,1.3c0.2,0.3,0.4,0.5,0.6,0.7c0.6,0.5,1.2,0.8,1.7,0.8c0.4,0,0.8-0.1,1.1-0.4c0.3-0.3,0.4-0.6,0.4-0.9l0-0.2c0-0.2,0-0.3-0.1-0.4c-0.1-0.2-0.2-0.4-0.4-0.6c-0.3-0.3-0.7-0.4-1.1-0.4c-0.5,0-1.1,0.2-1.7,0.8l-1-1.2L14,12.5c0.8-0.9,1.7-1.2,2.8-1.2c1,0,1.8,0.3,2.4,0.9l0,0c0.6,0.6,1,1.4,1,2.3c0,0.2,0,0.5-0.1,0.7c-0.1,0.6-0.4,1.2-0.9,1.6c-0.5,0.4-1,0.7-1.7,0.8c-0.2,0-0.5,0.1-0.7,0.1c-1,0-2-0.4-2.8-1.2c-0.2-0.2-0.4-0.4-0.6-0.7l-1.1-1.3c-0.2-0.3-0.4-0.5-0.6-0.7c-0.6-0.5-1.2-0.8-1.7-0.8c-0.2,0-0.3,0-0.5,0.1c-0.2,0.1-0.4,0.2-0.6,0.4c-0.2,0.2-0.4,0.5-0.4,0.8c0,0.1,0,0.2,0,0.3c0,0.4,0.1,0.7,0.4,1l0,0C9.2,15.8,9.5,16,10,16c0.5,0,1.1-0.2,1.7-0.8l1,1.2l0.1,0.1c-0.9,0.9-1.7,1.2-2.8,1.2C8.9,17.7,8.1,17.4,7.4,16.8z"/></g></g></g></svg>