<svg xmlns="http://www.w3.org/2000/svg" viewBox="0 0 24 24"><g id="link_x5F_32x32"><g opacity="0.75"><path fill="#F2EFDF" d="M23.6,2.4c-0.5-0.5-1.4-0.5-1.9,0l-2.8,2.8c-1.1-0.8-2.5-1.1-3.8-1.1c-1.8,0-3.5,0.7-4.9,2l-4.1,4.1c-2.4,2.4-2.6,6-0.9,8.7l-2.8,2.8c-0.5,0.5-0.5,1.4,0,1.9C2.7,23.9,3,24,3.4,24c0.4,0,0.7-0.1,1-0.4l2.8-2.8c1.1,0.8,2.5,1.1,3.8,1.1c1.8,0,3.5-0.7,4.9-2l4.1-4.1c2.4-2.4,2.6-6,0.9-8.7l2.8-2.8C24.1,3.8,24.1,2.9,23.6,2.4z M19.2,10.9c0,1.1-0.4,2.1-1.2,2.9L13.9,18c-0.8,0.8-1.8,1.2-2.9,1.2c-0.6,0-1.2-0.2-1.8-0.4l2.1-2.1c0.5-0.5,0.5-1.4,0-1.9c-0.5-0.5-1.4-0.5-1.9,0l-2.1,2.1c-0.3-0.5-0.4-1.1-0.4-1.8c0-1.1,0.4-2.1,1.2-2.9L12.1,8c0.8-0.8,1.8-1.2,2.9-1.2c0.6,0,1.2,0.2,1.8,0.4l-2.1,2.1c-0.5,0.5-0.5,1.4,0,1.9c0.3,0.3,0.6,0.4,1,0.4c0.4,0,0.7-0.1,1-0.4l2.1-2.1C19,9.7,19.2,10.3,19.2,10.9z"/></g><g><g><g><path fill="#B8BBBD" d="M22.6,1.4c-0.5-0.5-1.4-0.5-1.9,0l-2.8,2.8c-1.1-0.8-2.5-1.1-3.8-1.1c-1.8,0-3.5,0.7-4.9,2L5.1,9.2c-2.4,2.4-2.6,6-0.9,8.7l-2.8,2.8c-0.5,0.5-0.5,1.4,0,1.9C1.7,22.9,2,23,2.4,23c0.4,0,0.7-0.1,1-0.4l2.8-2.8c1.1,0.8,2.5,1.1,3.8,1.1c1.8,0,3.5-0.7,4.9-2l4.1-4.1c2.4-2.4,2.6-6,0.9-8.7l2.8-2.8C23.1,2.8,23.1,1.9,22.6,1.4z M18.2,9.9c0,1.1-0.4,2.1-1.2,2.9L12.9,17c-0.8,0.8-1.8,1.2-2.9,1.2c-0.6,0-1.2-0.2-1.8-0.4l2.1-2.1c0.5-0.5,0.5-1.4,0-1.9c-0.5-0.5-1.4-0.5-1.9,0l-2.1,2.1c-0.3-0.5-0.4-1.1-0.4-1.8c0-1.1,0.4-2.1,1.2-2.9L11.1,7c0.8-0.8,1.8-1.2,2.9-1.2c0.6,0,1.2,0.2,1.8,0.4l-2.1,2.1c-0.5,0.5-0.5,1.4,0,1.9c0.3,0.3,0.6,0.4,1,0.4c0.4,0,0.7-0.1,1-0.4l2.1-2.1C18,8.7,18.2,9.3,18.2,9.9z"/></g></g></g></g></svg>