<svg xmlns="http://www.w3.org/2000/svg" width="30px" height="30px"><g id="ball_1_"><g><path fill="#283740" d="M15.25,6.25c-4.962,0-9,4.038-9,9c0,4.963,4.038,9,9,9c4.963,0,9-4.037,9-9 C24.25,10.288,20.213,6.25,15.25,6.25z M21.2,10.4c1.072,1.308,1.72,2.973,1.737,4.789c-0.255-0.055-2.795-0.569-5.354-0.248 c-0.054-0.131-0.109-0.263-0.164-0.396c-0.16-0.375-0.332-0.748-0.51-1.113C19.75,12.271,21.039,10.619,21.2,10.4z M15.25,7.574 c1.954,0,3.738,0.733,5.096,1.938c-0.138,0.197-1.295,1.752-4.029,2.776c-1.259-2.314-2.655-4.215-2.868-4.5 C14.027,7.648,14.63,7.574,15.25,7.574z M11.982,8.305c0.202,0.278,1.576,2.181,2.85,4.445c-3.596,0.956-6.763,0.941-7.107,0.937 C8.224,11.301,9.832,9.319,11.982,8.305z M7.563,15.262c0-0.078,0.001-0.157,0.003-0.236c0.337,0.008,4.062,0.056,7.9-1.094 c0.221,0.431,0.431,0.869,0.623,1.305c-0.101,0.028-0.202,0.059-0.302,0.092c-3.965,1.281-6.075,4.775-6.249,5.072 C8.311,19.038,7.563,17.235,7.563,15.262z M15.25,22.949c-1.777,0-3.415-0.606-4.718-1.624c0.138-0.283,1.694-3.289,6.029-4.801 c0.017-0.004,0.034-0.01,0.051-0.017c1.08,2.805,1.527,5.155,1.641,5.831C17.331,22.729,16.314,22.949,15.25,22.949z M19.546,21.635c-0.079-0.47-0.489-2.72-1.493-5.481c2.409-0.386,4.524,0.246,4.787,0.328 C22.498,18.62,21.271,20.468,19.546,21.635z"/></g><g><g><path fill="#FFFFFF" d="M15,6c-4.962,0-9,4.038-9,9c0,4.963,4.038,9,9,9c4.963,0,9-4.037,9-9C24,10.038,19.963,6,15,6z M20.95,10.15c1.072,1.308,1.72,2.973,1.737,4.789c-0.255-0.055-2.795-0.569-5.354-0.248c-0.054-0.131-0.109-0.263-0.164-0.396 c-0.16-0.375-0.332-0.748-0.51-1.113C19.5,12.021,20.789,10.369,20.95,10.15z M15,7.324c1.954,0,3.738,0.733,5.096,1.938 c-0.138,0.197-1.295,1.752-4.029,2.776c-1.259-2.314-2.655-4.215-2.868-4.5C13.777,7.398,14.38,7.324,15,7.324z M11.732,8.055 c0.202,0.278,1.576,2.181,2.85,4.445c-3.596,0.956-6.763,0.941-7.107,0.937C7.974,11.051,9.582,9.069,11.732,8.055z M7.313,15.012c0-0.078,0.001-0.157,0.003-0.236c0.337,0.008,4.062,0.056,7.9-1.094c0.221,0.431,0.431,0.869,0.624,1.305 c-0.101,0.028-0.203,0.059-0.302,0.092c-3.965,1.281-6.075,4.775-6.249,5.072C8.061,18.788,7.313,16.985,7.313,15.012z M15,22.699c-1.777,0-3.415-0.606-4.718-1.624c0.138-0.283,1.694-3.289,6.029-4.801c0.017-0.004,0.034-0.01,0.051-0.017 c1.08,2.805,1.527,5.155,1.641,5.831C17.081,22.479,16.064,22.699,15,22.699z M19.296,21.385c-0.079-0.47-0.489-2.72-1.493-5.481 c2.409-0.386,4.524,0.246,4.787,0.328C22.248,18.37,21.021,20.218,19.296,21.385z"/></g></g></g></svg>