<svg xmlns="http://www.w3.org/2000/svg" width="30px" height="30px"><g><g><path fill="#283740" d="M15.6,6.2c-4.9,0-7.4,3.5-7.4,6.5c0,1.8,0.7,3.4,2.1,3.9c0.2,0.1,0.4,0,0.5-0.3c0-0.2,0.2-0.6,0.2-0.8c0.1-0.3,0-0.4-0.1-0.6c-0.4-0.5-0.7-1.1-0.7-2c0-2.6,2-5,5.1-5c2.8,0,4.3,1.7,4.3,4c0,3-1.3,5.5-3.3,5.5c-1.1,0-1.9-0.9-1.6-2c0.3-1.3,0.9-2.7,0.9-3.7c0-0.8-0.5-1.6-1.4-1.6c-1.1,0-2,1.1-2,2.7c0,1,0.3,1.6,0.3,1.6s-1.1,4.8-1.3,5.6c-0.4,1.7-0.1,3.7,0,3.9c0,0.1,0.2,0.2,0.2,0.1c0.1-0.1,1.4-1.8,1.9-3.4c0.1-0.5,0.7-2.8,0.7-2.8c0.4,0.7,1.4,1.3,2.5,1.3c3.3,0,5.6-3,5.6-7.1C22.2,9.1,19.6,6.2,15.6,6.2z"/></g><g><path fill="#FFFFFF" d="M15.4,6C10.5,6,8,9.5,8,12.5c0,1.8,0.7,3.4,2.1,3.9c0.2,0.1,0.4,0,0.5-0.3c0-0.2,0.2-0.6,0.2-0.8c0.1-0.3,0-0.4-0.1-0.6c-0.4-0.5-0.7-1.1-0.7-2c0-2.6,2-5,5.1-5c2.8,0,4.3,1.7,4.3,4c0,3-1.3,5.5-3.3,5.5c-1.1,0-1.9-0.9-1.6-2c0.3-1.3,0.9-2.7,0.9-3.7c0-0.8-0.5-1.6-1.4-1.6c-1.1,0-2,1.1-2,2.7c0,1,0.3,1.6,0.3,1.6s-1.1,4.8-1.3,5.6c-0.4,1.7-0.1,3.7,0,3.9c0,0.1,0.2,0.2,0.2,0.1c0.1-0.1,1.4-1.8,1.9-3.4c0.1-0.5,0.7-2.8,0.7-2.8c0.4,0.7,1.4,1.3,2.5,1.3c3.3,0,5.6-3,5.6-7.1C22,8.9,19.4,6,15.4,6z"/></g></g></svg>