<svg xmlns="http://www.w3.org/2000/svg" width="30px" height="30px"><g><g><path fill="#283740" d="M8.5,12.9h2.9v9.4H8.5V12.9z M9.9,8.2c0.9,0,1.7,0.8,1.7,1.7c0,0.9-0.8,1.7-1.7,1.7c-0.9,0-1.7-0.8-1.7-1.7C8.2,9,9,8.2,9.9,8.2"/><path fill="#283740" d="M13.2,12.9H16v1.3h0c0.4-0.7,1.3-1.5,2.8-1.5c2.9,0,3.5,1.9,3.5,4.5v5.1h-2.9v-4.5c0-1.1,0-2.5-1.5-2.5c-1.5,0-1.7,1.2-1.7,2.4v4.6h-2.9V12.9z"/></g><g><g><path fill="#FFFFFF" d="M8.2,12.6h2.9V22H8.2V12.6z M9.7,8c0.9,0,1.7,0.8,1.7,1.7c0,0.9-0.8,1.7-1.7,1.7C8.7,11.4,8,10.6,8,9.7C8,8.8,8.7,8,9.7,8"/><path fill="#FFFFFF" d="M12.9,12.6h2.8v1.3h0c0.4-0.7,1.3-1.5,2.8-1.5c2.9,0,3.5,1.9,3.5,4.5V22h-2.9v-4.5c0-1.1,0-2.5-1.5-2.5c-1.5,0-1.7,1.2-1.7,2.4V22h-2.9V12.6z"/></g></g></g></svg>