<svg xmlns="http://www.w3.org/2000/svg" width="30px" height="30px"><g><g><path fill="#283740" d="M6.25,18.095c0,0,3.149,2.956,6.585-0.294c0,0-1.009,0.112-1.269-0.682c0,0-0.108-0.434,0.641-0.879 c0,0-1.473,0.125-2.126-1.157c0,0,0.314-0.502,1.207-0.516c0,0-1.739-0.266-1.971-1.869c0,0,0.411-0.112,0.996-0.154 c0,0-1.485-0.809-1.431-2.315c0,0,4.309,1.408,5.987,3.263c0,0,1.404-3.89,2.801-4.469c0,0,0.049,0.063-0.185,0.425 c0,0,0.725-0.557,1.35-0.627c0,0,0.22,0.099-0.545,0.613c0,0,1.2-0.572,1.377-0.181c0,0,0.219,0.375-1.499,0.752 c0,0,3.109-0.098,3.872,3.598c0,0,1.188,0.348,2.1-0.07c0,0-0.177,0.864-1.908,1.032c0,0,0.875,0.391,2.02,0.194 c0,0-0.765,1.005-2.155,0.795c0,0-0.713,3.127-3.709,4.771c-1.046,0.572-2.86,1.336-4.528,1.35 c-1.145,0.013-1.881-0.051-3.382-0.461c-0.833-0.225-2.07-0.95-2.891-1.699C7.031,19.01,6.577,18.652,6.25,18.095z"/></g><g><path fill="#FFFFFF" d="M6,17.845c0,0,3.149,2.956,6.585-0.294c0,0-1.009,0.112-1.269-0.682c0,0-0.108-0.434,0.641-0.879 c0,0-1.473,0.125-2.126-1.157c0,0,0.314-0.502,1.207-0.516c0,0-1.739-0.266-1.971-1.869c0,0,0.411-0.112,0.996-0.154 c0,0-1.485-0.809-1.431-2.315c0,0,4.309,1.408,5.987,3.263c0,0,1.404-3.89,2.801-4.469c0,0,0.049,0.063-0.185,0.425 c0,0,0.725-0.557,1.35-0.627c0,0,0.22,0.099-0.545,0.613c0,0,1.2-0.572,1.377-0.181c0,0,0.219,0.375-1.499,0.752 c0,0,3.109-0.098,3.872,3.598c0,0,1.188,0.348,2.1-0.07c0,0-0.177,0.864-1.908,1.032c0,0,0.875,0.391,2.02,0.194 c0,0-0.765,1.005-2.155,0.795c0,0-0.713,3.127-3.709,4.771c-1.046,0.572-2.86,1.336-4.528,1.35 c-1.145,0.013-1.881-0.051-3.382-0.461c-0.833-0.225-2.07-0.95-2.891-1.699C6.781,18.76,6.327,18.402,6,17.845z"/></g></g></svg>