<svg xmlns="http://www.w3.org/2000/svg" width="30px" height="30px"><g><g><path fill="#283740" d="M15.252,16.78c-0.134,0-0.264,0.007-0.394,0.015c-0.087-0.248-0.141-0.518-0.141-0.812 c0-0.291,0.053-0.803,0.136-0.804c0.044,0,0.087,0.005,0.132,0.005c2.209,0,4.001-1.794,4.001-4.006 c0-0.527-0.242-1.21-0.523-1.492l1.373-0.768V6.25l-2.863,1.599c-0.637-0.424-1.284-0.673-2.105-0.673 c-2.209,0-3.943,1.791-3.943,4.001c0,1.244,0.597,2.355,1.487,3.089c-0.248,0.521-0.375,1.098-0.375,1.713 c0,0.552,0.123,1.075,0.325,1.553c-1.164,0.681-1.916,1.763-1.916,2.982c0,2.063,2.152,3.735,4.804,3.735 c2.653,0,4.803-1.672,4.803-3.735C20.054,18.452,17.904,16.78,15.252,16.78z M14.986,9.31c1.032,0,1.867,0.836,1.867,1.867 c0,1.032-0.835,1.869-1.867,1.869c-1.032,0-1.868-0.837-1.868-1.869C13.118,10.146,13.954,9.31,14.986,9.31z M15.252,21.951 c-1.179,0-2.134-0.644-2.134-1.437c0-0.792,0.956-1.437,2.134-1.437c1.178,0,2.133,0.645,2.133,1.437 C17.386,21.308,16.431,21.951,15.252,21.951z"/></g><g><g><path fill="#FFFFFF" d="M15.002,16.53c-0.134,0-0.264,0.007-0.394,0.015c-0.087-0.248-0.141-0.518-0.141-0.812 c0-0.291,0.053-0.803,0.136-0.804c0.044,0,0.087,0.005,0.132,0.005c2.209,0,4.001-1.794,4.001-4.006 c0-0.527-0.242-1.21-0.523-1.492l1.373-0.768V6l-2.863,1.599c-0.637-0.424-1.284-0.673-2.105-0.673 c-2.209,0-3.943,1.791-3.943,4.001c0,1.244,0.597,2.355,1.487,3.089c-0.248,0.521-0.375,1.098-0.375,1.713 c0,0.552,0.123,1.075,0.325,1.553c-1.164,0.681-1.916,1.763-1.916,2.982C10.196,22.328,12.348,24,15,24 c2.653,0,4.803-1.672,4.803-3.735C19.804,18.202,17.654,16.53,15.002,16.53z M14.736,9.06c1.032,0,1.867,0.836,1.867,1.867 c0,1.032-0.834,1.869-1.867,1.869s-1.868-0.837-1.868-1.869C12.868,9.896,13.704,9.06,14.736,9.06z M15.002,21.701 c-1.179,0-2.134-0.644-2.134-1.437c0-0.792,0.956-1.437,2.134-1.437c1.178,0,2.133,0.645,2.133,1.437 C17.136,21.058,16.181,21.701,15.002,21.701z"/></g></g></g></svg>